<svg width="20" height="21" viewBox="0 0 20 21" fill="none" xmlns="http://www.w3.org/2000/svg">
<path d="M10 0.5C4.475 0.5 0 4.975 0 10.5C0 16.025 4.475 20.5 10 20.5C15.525 20.5 20 16.025 20 10.5C20 4.975 15.525 0.5 10 0.5ZM17.0583 6.575H14.0667C13.7917 5.16667 13.375 3.925 12.8583 2.95C14.65 3.63333 16.1417 4.925 17.0667 6.575H17.0583ZM18.0833 10.5C18.0833 11.1917 17.9833 11.8667 17.8167 12.5083H14.3417C14.4 11.8583 14.4333 11.1917 14.4333 10.5C14.4333 9.80833 14.4 9.14167 14.3417 8.49167H17.8167C17.9833 9.13333 18.0833 9.80833 18.0833 10.5ZM10 18.4667C9.54167 18.4667 8.475 17.0833 7.88333 14.425H12.1083C11.525 17.0833 10.45 18.4667 9.99167 18.4667H10ZM7.58333 12.5083C7.51667 11.8833 7.48333 11.2167 7.48333 10.5C7.48333 9.78333 7.525 9.11667 7.58333 8.49167H12.4167C12.4833 9.11667 12.5167 9.78333 12.5167 10.5C12.5167 11.2167 12.475 11.8833 12.4167 12.5083H7.58333ZM1.91667 10.5C1.91667 9.80833 2.01667 9.13333 2.18333 8.49167H5.65833C5.6 9.14167 5.56667 9.80833 5.56667 10.5C5.56667 11.1917 5.6 11.8583 5.65833 12.5083H2.18333C2.01667 11.8667 1.91667 11.1917 1.91667 10.5ZM10 2.53333C10.4583 2.53333 11.525 3.91667 12.1167 6.575H7.89167C8.475 3.91667 9.55 2.53333 10.0083 2.53333H10ZM7.14167 2.94167C6.625 3.91667 6.2 5.15833 5.93333 6.56667H2.94167C3.86667 4.90833 5.35833 3.61667 7.15 2.94167H7.14167ZM2.94167 14.4167H5.93333C6.20833 15.825 6.625 17.0667 7.14167 18.0417C5.35 17.3583 3.86667 16.0667 2.94167 14.4167ZM12.8583 18.0417C13.375 17.0667 13.7917 15.825 14.0667 14.4167H17.0583C16.1333 16.075 14.6417 17.3667 12.8583 18.0417Z" fill="black"/>
</svg>
