<svg width="218" height="37" viewBox="0 0 218 37" fill="none" xmlns="http://www.w3.org/2000/svg">
<path d="M7.72119 32.1079C6.38135 32.1079 5.18164 31.7969 4.12207 31.1748C3.06934 30.5527 2.23877 29.6572 1.63037 28.4883C1.02881 27.3193 0.728027 25.9146 0.728027 24.2739C0.728027 22.6265 1.03223 21.2183 1.64062 20.0493C2.25586 18.8735 3.08984 17.9746 4.14258 17.3525C5.20215 16.7305 6.39502 16.4194 7.72119 16.4194C8.56201 16.4194 9.34814 16.5391 10.0796 16.7783C10.8179 17.0176 11.4741 17.3696 12.0483 17.8345C12.6226 18.2925 13.0908 18.8564 13.4531 19.5264C13.8223 20.1895 14.0649 20.9448 14.1812 21.7925H11.3921C11.3169 21.3276 11.1699 20.9175 10.9512 20.562C10.7393 20.2065 10.4727 19.9058 10.1514 19.6597C9.83691 19.4067 9.47803 19.2188 9.07471 19.0957C8.67139 18.9658 8.2373 18.9009 7.77246 18.9009C6.93848 18.9009 6.2002 19.1094 5.55762 19.5264C4.91504 19.9365 4.4126 20.5449 4.05029 21.3516C3.68799 22.1514 3.50684 23.1255 3.50684 24.2739C3.50684 25.436 3.68799 26.417 4.05029 27.2168C4.41943 28.0098 4.92188 28.6113 5.55762 29.0215C6.2002 29.4248 6.93506 29.6265 7.76221 29.6265C8.22021 29.6265 8.64746 29.5684 9.04395 29.4521C9.44043 29.3291 9.79932 29.1479 10.1206 28.9087C10.4487 28.6626 10.7188 28.3687 10.9307 28.0269C11.1494 27.6782 11.3032 27.2783 11.3921 26.8271H14.1812C14.0786 27.5586 13.853 28.2456 13.5044 28.8882C13.1626 29.5239 12.7114 30.0845 12.1509 30.5698C11.5972 31.0483 10.9478 31.4243 10.2026 31.6978C9.45752 31.9712 8.63037 32.1079 7.72119 32.1079ZM20.8359 32.1284C19.7148 32.1284 18.7441 31.8823 17.9238 31.3901C17.1035 30.8979 16.4678 30.2075 16.0166 29.3188C15.5723 28.4302 15.3501 27.3979 15.3501 26.2222C15.3501 25.0396 15.5723 24.0039 16.0166 23.1152C16.4678 22.2197 17.1035 21.5259 17.9238 21.0337C18.7441 20.5415 19.7148 20.2954 20.8359 20.2954C21.957 20.2954 22.9277 20.5415 23.748 21.0337C24.5684 21.5259 25.2041 22.2197 25.6553 23.1152C26.1064 24.0039 26.332 25.0396 26.332 26.2222C26.332 27.3979 26.1064 28.4302 25.6553 29.3188C25.2041 30.2075 24.5684 30.8979 23.748 31.3901C22.9277 31.8823 21.957 32.1284 20.8359 32.1284ZM20.8359 29.9546C21.458 29.9546 21.9707 29.7905 22.374 29.4624C22.7773 29.1274 23.0781 28.6763 23.2764 28.1089C23.4814 27.5415 23.584 26.9126 23.584 26.2222C23.584 25.5181 23.4814 24.8823 23.2764 24.3149C23.0781 23.7476 22.7773 23.2998 22.374 22.9717C21.9707 22.6367 21.458 22.4692 20.8359 22.4692C20.2275 22.4692 19.7183 22.6367 19.3081 22.9717C18.8979 23.2998 18.5903 23.7476 18.3853 24.3149C18.187 24.8823 18.0879 25.5181 18.0879 26.2222C18.0879 26.9126 18.187 27.5415 18.3853 28.1089C18.5903 28.6763 18.8979 29.1274 19.3081 29.4624C19.7183 29.7905 20.2275 29.9546 20.8359 29.9546ZM30.5156 25.1968V31.9028H27.8188V20.439H30.4644V22.3975H30.5977C30.8574 21.7549 31.2642 21.2456 31.8179 20.8696C32.3784 20.4868 33.0894 20.2954 33.9507 20.2954C34.7437 20.2954 35.4341 20.4629 36.022 20.7979C36.6099 21.1328 37.0645 21.625 37.3857 22.2744C37.7139 22.917 37.8779 23.6963 37.8779 24.6123V31.9028H35.1812V25.0327C35.1812 24.2671 34.9829 23.6689 34.5864 23.2383C34.1899 22.8008 33.6431 22.582 32.9458 22.582C32.4741 22.582 32.0537 22.6846 31.6846 22.8896C31.3223 23.0947 31.0352 23.3921 30.8232 23.7817C30.6182 24.1646 30.5156 24.6362 30.5156 25.1968ZM48.9214 23.4844L46.4707 23.7407C46.3682 23.3647 46.146 23.0332 45.8042 22.7461C45.4624 22.4521 44.9805 22.3052 44.3584 22.3052C43.7979 22.3052 43.3262 22.4282 42.9434 22.6743C42.5674 22.9204 42.3794 23.2349 42.3794 23.6177C42.3794 23.9526 42.5024 24.2295 42.7485 24.4482C43.0015 24.6602 43.4185 24.8311 43.9995 24.9609L45.958 25.3711C47.0312 25.5967 47.8345 25.9658 48.3677 26.4785C48.9009 26.9912 49.1675 27.6543 49.1675 28.4678C49.1675 29.1855 48.959 29.8213 48.542 30.375C48.125 30.9287 47.5474 31.3594 46.8091 31.667C46.0776 31.9746 45.2334 32.1284 44.2764 32.1284C42.875 32.1284 41.7471 31.8345 40.8926 31.2466C40.0449 30.6519 39.5356 29.8281 39.3647 28.7754L42 28.5293C42.1162 29.042 42.3691 29.4316 42.7588 29.6982C43.1553 29.958 43.6611 30.0879 44.2764 30.0879C44.9189 30.0879 45.4351 29.958 45.8247 29.6982C46.2144 29.4316 46.4092 29.1069 46.4092 28.7241C46.4092 28.0815 45.8965 27.644 44.8711 27.4116L42.9126 27.0015C41.812 26.7622 40.9985 26.376 40.4722 25.8428C39.9458 25.3027 39.6826 24.6157 39.6826 23.7817C39.6826 23.0708 39.8774 22.4556 40.2671 21.936C40.6567 21.4165 41.2002 21.0132 41.8975 20.7261C42.5947 20.439 43.4014 20.2954 44.3174 20.2954C45.6641 20.2954 46.7202 20.5859 47.4858 21.167C48.2583 21.7412 48.7368 22.5137 48.9214 23.4844ZM56.335 20.439V22.5308H49.7622V20.439H56.335ZM51.3721 17.7114H54.0688V28.4575C54.0688 28.9087 54.168 29.2437 54.3662 29.4624C54.5645 29.6743 54.8789 29.7803 55.3096 29.7803C55.4258 29.7803 55.5557 29.77 55.6992 29.7495C55.8428 29.729 55.9727 29.7051 56.0889 29.6777L56.5503 31.79C56.2632 31.8789 55.9727 31.9438 55.6787 31.9849C55.3848 32.0327 55.0908 32.0566 54.7969 32.0566C53.7305 32.0566 52.8931 31.7764 52.2847 31.2158C51.6763 30.6484 51.3721 29.876 51.3721 28.8984V17.7114ZM57.8218 31.9028V20.439H60.4365V22.3667H60.5596C60.7646 21.6968 61.1235 21.1841 61.6362 20.8286C62.1489 20.4663 62.7334 20.2852 63.3896 20.2852C63.5332 20.2852 63.6973 20.292 63.8818 20.3057C64.0732 20.3193 64.2305 20.3364 64.3535 20.3569V22.8384C64.2373 22.7974 64.0562 22.7632 63.8101 22.7358C63.564 22.7085 63.3281 22.6948 63.1025 22.6948C62.6035 22.6948 62.1592 22.8008 61.7695 23.0127C61.3799 23.2246 61.0723 23.5151 60.8467 23.8843C60.6279 24.2534 60.5186 24.6841 60.5186 25.1763V31.9028H57.8218ZM72.6694 27.0938V20.439H75.3662V31.9028H72.7515V29.8623H72.6284C72.3687 30.5049 71.9448 31.0312 71.3569 31.4414C70.769 31.8516 70.0444 32.0532 69.1831 32.0464C68.4312 32.0464 67.7681 31.8823 67.1938 31.5542C66.6265 31.2192 66.1787 30.7305 65.8506 30.0879C65.5293 29.4385 65.3687 28.6558 65.3687 27.7397V20.439H68.0654V27.3296C68.0654 28.0474 68.2637 28.6216 68.6602 29.0522C69.0635 29.4829 69.5898 29.6948 70.2393 29.688C70.6357 29.688 71.0186 29.5923 71.3877 29.4009C71.7637 29.2095 72.0713 28.9224 72.3105 28.5396C72.5498 28.1567 72.6694 27.6748 72.6694 27.0938ZM82.3594 32.1284C81.2178 32.1284 80.2368 31.8789 79.4165 31.3799C78.5962 30.874 77.9673 30.1768 77.5298 29.2881C77.0923 28.3994 76.8735 27.3774 76.8735 26.2222C76.8735 25.0532 77.0957 24.0244 77.54 23.1357C77.9844 22.2471 78.6167 21.5532 79.437 21.0542C80.2573 20.5483 81.2246 20.2954 82.3389 20.2954C83.2754 20.2954 84.1025 20.4663 84.8203 20.8081C85.5381 21.1499 86.1089 21.6318 86.5327 22.2539C86.9634 22.8691 87.2095 23.5903 87.271 24.4175H84.687C84.6187 24.0483 84.4854 23.7168 84.2871 23.4229C84.0889 23.1289 83.8291 22.8965 83.5078 22.7256C83.1934 22.5547 82.8174 22.4692 82.3799 22.4692C81.8262 22.4692 81.3408 22.6196 80.9238 22.9204C80.5137 23.2144 80.1924 23.6382 79.96 24.1919C79.7275 24.7456 79.6113 25.4087 79.6113 26.1812C79.6113 26.9604 79.7241 27.6338 79.9497 28.2012C80.1753 28.7617 80.4966 29.1958 80.9136 29.5034C81.3306 29.8042 81.8193 29.9546 82.3799 29.9546C82.9746 29.9546 83.4771 29.7803 83.8872 29.4316C84.3042 29.083 84.5708 28.6011 84.687 27.9858H87.271C87.2095 28.7993 86.9702 29.5171 86.5532 30.1392C86.1362 30.7612 85.5723 31.25 84.8613 31.6055C84.1504 31.9541 83.3164 32.1284 82.3594 32.1284ZM94.4385 20.439V22.5308H87.8657V20.439H94.4385ZM89.4756 17.7114H92.1724V28.4575C92.1724 28.9087 92.2715 29.2437 92.4697 29.4624C92.668 29.6743 92.9824 29.7803 93.4131 29.7803C93.5293 29.7803 93.6592 29.77 93.8027 29.7495C93.9463 29.729 94.0762 29.7051 94.1924 29.6777L94.6538 31.79C94.3667 31.8789 94.0762 31.9438 93.7822 31.9849C93.4883 32.0327 93.1943 32.0566 92.9004 32.0566C91.834 32.0566 90.9966 31.7764 90.3882 31.2158C89.7798 30.6484 89.4756 29.876 89.4756 28.8984V17.7114ZM95.9253 31.9028V20.439H98.6221V31.9028H95.9253ZM97.2788 18.8291C96.8481 18.8291 96.479 18.6855 96.1714 18.3984C95.8638 18.1113 95.71 17.7661 95.71 17.3628C95.71 16.9526 95.8638 16.604 96.1714 16.3169C96.479 16.0298 96.8481 15.8862 97.2788 15.8862C97.7026 15.8862 98.0684 16.0298 98.376 16.3169C98.6836 16.604 98.8374 16.9492 98.8374 17.3525C98.8374 17.7627 98.6836 18.1113 98.376 18.3984C98.0684 18.6855 97.7026 18.8291 97.2788 18.8291ZM105.615 32.1284C104.494 32.1284 103.523 31.8823 102.703 31.3901C101.883 30.8979 101.247 30.2075 100.796 29.3188C100.352 28.4302 100.129 27.3979 100.129 26.2222C100.129 25.0396 100.352 24.0039 100.796 23.1152C101.247 22.2197 101.883 21.5259 102.703 21.0337C103.523 20.5415 104.494 20.2954 105.615 20.2954C106.736 20.2954 107.707 20.5415 108.527 21.0337C109.348 21.5259 109.983 22.2197 110.435 23.1152C110.886 24.0039 111.111 25.0396 111.111 26.2222C111.111 27.3979 110.886 28.4302 110.435 29.3188C109.983 30.2075 109.348 30.8979 108.527 31.3901C107.707 31.8823 106.736 32.1284 105.615 32.1284ZM105.615 29.9546C106.237 29.9546 106.75 29.7905 107.153 29.4624C107.557 29.1274 107.857 28.6763 108.056 28.1089C108.261 27.5415 108.363 26.9126 108.363 26.2222C108.363 25.5181 108.261 24.8823 108.056 24.3149C107.857 23.7476 107.557 23.2998 107.153 22.9717C106.75 22.6367 106.237 22.4692 105.615 22.4692C105.007 22.4692 104.498 22.6367 104.087 22.9717C103.677 23.2998 103.37 23.7476 103.165 24.3149C102.966 24.8823 102.867 25.5181 102.867 26.2222C102.867 26.9126 102.966 27.5415 103.165 28.1089C103.37 28.6763 103.677 29.1274 104.087 29.4624C104.498 29.7905 105.007 29.9546 105.615 29.9546ZM115.295 25.1968V31.9028H112.598V20.439H115.244V22.3975H115.377C115.637 21.7549 116.043 21.2456 116.597 20.8696C117.158 20.4868 117.869 20.2954 118.73 20.2954C119.523 20.2954 120.213 20.4629 120.801 20.7979C121.389 21.1328 121.844 21.625 122.165 22.2744C122.493 22.917 122.657 23.6963 122.657 24.6123V31.9028H119.96V25.0327C119.96 24.2671 119.762 23.6689 119.366 23.2383C118.969 22.8008 118.422 22.582 117.725 22.582C117.253 22.582 116.833 22.6846 116.464 22.8896C116.102 23.0947 115.814 23.3921 115.603 23.7817C115.397 24.1646 115.295 24.6362 115.295 25.1968ZM131.168 31.9028H128.205L133.598 16.6245H137.002L142.386 31.9028H139.433L135.352 19.7622H135.229L131.168 31.9028ZM131.271 25.9146H139.32V28.1294H131.271V25.9146ZM148.128 32.1284C146.986 32.1284 146.005 31.8789 145.185 31.3799C144.365 30.874 143.736 30.1768 143.298 29.2881C142.861 28.3994 142.642 27.3774 142.642 26.2222C142.642 25.0532 142.864 24.0244 143.309 23.1357C143.753 22.2471 144.385 21.5532 145.206 21.0542C146.026 20.5483 146.993 20.2954 148.107 20.2954C149.044 20.2954 149.871 20.4663 150.589 20.8081C151.307 21.1499 151.877 21.6318 152.301 22.2539C152.732 22.8691 152.978 23.5903 153.04 24.4175H150.456C150.387 24.0483 150.254 23.7168 150.056 23.4229C149.857 23.1289 149.598 22.8965 149.276 22.7256C148.962 22.5547 148.586 22.4692 148.148 22.4692C147.595 22.4692 147.109 22.6196 146.692 22.9204C146.282 23.2144 145.961 23.6382 145.729 24.1919C145.496 24.7456 145.38 25.4087 145.38 26.1812C145.38 26.9604 145.493 27.6338 145.718 28.2012C145.944 28.7617 146.265 29.1958 146.682 29.5034C147.099 29.8042 147.588 29.9546 148.148 29.9546C148.743 29.9546 149.246 29.7803 149.656 29.4316C150.073 29.083 150.339 28.6011 150.456 27.9858H153.04C152.978 28.7993 152.739 29.5171 152.322 30.1392C151.905 30.7612 151.341 31.25 150.63 31.6055C149.919 31.9541 149.085 32.1284 148.128 32.1284ZM157.797 32.1387C157.066 32.1387 156.41 32.0088 155.829 31.749C155.248 31.4824 154.79 31.0928 154.455 30.5801C154.12 30.0674 153.952 29.4351 153.952 28.6831C153.952 28.0405 154.072 27.5073 154.311 27.0835C154.55 26.6597 154.875 26.3213 155.285 26.0684C155.702 25.8154 156.17 25.624 156.69 25.4941C157.209 25.3574 157.746 25.2617 158.3 25.207C158.977 25.1318 159.523 25.0669 159.94 25.0122C160.357 24.9575 160.658 24.8687 160.843 24.7456C161.034 24.6226 161.13 24.4312 161.13 24.1714V24.1201C161.13 23.5664 160.966 23.1357 160.638 22.8281C160.31 22.5205 159.831 22.3667 159.202 22.3667C158.539 22.3667 158.013 22.5103 157.623 22.7974C157.24 23.0845 156.98 23.4229 156.844 23.8125L154.332 23.4536C154.53 22.7563 154.858 22.1753 155.316 21.7104C155.774 21.2388 156.331 20.8867 156.987 20.6543C157.65 20.415 158.382 20.2954 159.182 20.2954C159.729 20.2954 160.275 20.3604 160.822 20.4902C161.369 20.6133 161.872 20.8252 162.33 21.126C162.788 21.4268 163.153 21.8301 163.427 22.3359C163.7 22.8418 163.837 23.4741 163.837 24.2329V31.9028H161.243V30.3237H161.161C160.997 30.6382 160.764 30.9355 160.463 31.2158C160.169 31.4893 159.8 31.7114 159.356 31.8823C158.918 32.0532 158.399 32.1387 157.797 32.1387ZM158.484 30.1494C159.031 30.1494 159.503 30.0435 159.899 29.8315C160.296 29.6128 160.604 29.3257 160.822 28.9702C161.041 28.6079 161.15 28.2148 161.15 27.791V26.4478C161.062 26.5161 160.918 26.5811 160.72 26.6426C160.521 26.6973 160.296 26.7485 160.043 26.7964C159.79 26.8442 159.541 26.8853 159.294 26.9194C159.055 26.9536 158.847 26.981 158.669 27.0015C158.266 27.0562 157.903 27.1484 157.582 27.2783C157.268 27.4014 157.018 27.5723 156.833 27.791C156.649 28.0098 156.557 28.2935 156.557 28.6421C156.557 29.1411 156.738 29.5171 157.1 29.77C157.462 30.0229 157.924 30.1494 158.484 30.1494ZM170.061 32.1079C169.166 32.1079 168.359 31.8789 167.641 31.4209C166.93 30.9561 166.37 30.2827 165.959 29.4009C165.549 28.519 165.344 27.4492 165.344 26.1914C165.344 24.9131 165.553 23.8364 165.97 22.9614C166.394 22.0864 166.961 21.4233 167.672 20.9722C168.383 20.521 169.179 20.2954 170.061 20.2954C170.738 20.2954 171.292 20.4082 171.722 20.6338C172.153 20.8594 172.495 21.1328 172.748 21.4541C173.007 21.7686 173.206 22.0625 173.342 22.3359H173.455V16.6245H176.142V31.9028H173.506V30.0879H173.342C173.199 30.3682 172.997 30.6655 172.737 30.98C172.478 31.2876 172.132 31.5542 171.702 31.7798C171.271 31.9985 170.724 32.1079 170.061 32.1079ZM170.81 29.8931C171.384 29.8931 171.869 29.7393 172.266 29.4316C172.669 29.1172 172.977 28.6831 173.188 28.1294C173.4 27.5688 173.506 26.9194 173.506 26.1812C173.506 25.436 173.4 24.79 173.188 24.2432C172.983 23.6895 172.679 23.2622 172.276 22.9614C171.879 22.6606 171.391 22.5103 170.81 22.5103C170.215 22.5103 169.716 22.6675 169.312 22.9819C168.909 23.2964 168.605 23.7305 168.4 24.2842C168.202 24.8379 168.103 25.4702 168.103 26.1812C168.103 26.8921 168.205 27.5278 168.41 28.0884C168.615 28.6489 168.916 29.0898 169.312 29.4111C169.716 29.7324 170.215 29.8931 170.81 29.8931ZM183.217 32.1284C182.068 32.1284 181.077 31.8892 180.243 31.4106C179.409 30.9253 178.767 30.2417 178.315 29.3599C177.871 28.478 177.649 27.439 177.649 26.2427C177.649 25.0601 177.871 24.0244 178.315 23.1357C178.76 22.2402 179.385 21.543 180.192 21.0439C180.999 20.5449 181.949 20.2954 183.042 20.2954C183.747 20.2954 184.413 20.4082 185.042 20.6338C185.678 20.8594 186.238 21.208 186.724 21.6797C187.216 22.1514 187.602 22.7529 187.882 23.4844C188.163 24.209 188.303 25.0737 188.303 26.0786V26.9194H178.91V25.1045H186.959L185.698 25.6377C185.698 24.9883 185.599 24.4243 185.401 23.9458C185.203 23.4604 184.909 23.0811 184.519 22.8076C184.129 22.5342 183.644 22.3975 183.063 22.3975C182.482 22.3975 181.986 22.5342 181.576 22.8076C181.166 23.0811 180.855 23.4502 180.643 23.915C180.431 24.373 180.325 24.8857 180.325 25.4531V26.7144C180.325 27.4116 180.445 28.0098 180.684 28.5088C180.93 29.001 181.272 29.377 181.709 29.6367C182.154 29.8965 182.67 30.0264 183.258 30.0264C183.641 30.0264 183.989 29.9717 184.304 29.8623C184.625 29.7529 184.898 29.5889 185.124 29.3701C185.356 29.1445 185.534 28.8677 185.657 28.5396L188.18 28.8369C188.016 29.5 187.711 30.0811 187.267 30.5801C186.83 31.0723 186.266 31.4551 185.575 31.7285C184.892 31.9951 184.105 32.1284 183.217 32.1284ZM189.769 31.9028V20.439H192.343V22.3975H192.486C192.726 21.7412 193.122 21.2285 193.676 20.8594C194.229 20.4834 194.886 20.2954 195.645 20.2954C196.424 20.2954 197.08 20.4834 197.613 20.8594C198.146 21.2354 198.519 21.748 198.731 22.3975H198.854C199.114 21.7617 199.544 21.2524 200.146 20.8696C200.748 20.4868 201.465 20.2954 202.299 20.2954C203.352 20.2954 204.21 20.6304 204.873 21.3003C205.543 21.9634 205.878 22.9341 205.878 24.2124V31.9028H203.171V24.6226C203.171 23.9185 202.979 23.4023 202.597 23.0742C202.221 22.7393 201.759 22.5718 201.212 22.5718C200.563 22.5718 200.057 22.7769 199.695 23.187C199.333 23.5903 199.151 24.1099 199.151 24.7456V31.9028H196.485V24.52C196.485 23.9253 196.311 23.4536 195.962 23.105C195.614 22.7495 195.152 22.5718 194.578 22.5718C194.188 22.5718 193.833 22.6709 193.512 22.8691C193.19 23.0674 192.934 23.3442 192.743 23.6997C192.558 24.0552 192.466 24.4653 192.466 24.9302V31.9028H189.769ZM209.149 36.189C208.78 36.1958 208.438 36.1685 208.124 36.1069C207.816 36.0522 207.566 35.9873 207.375 35.9121L208.011 33.8101L208.144 33.8511C208.691 33.9946 209.156 34.0049 209.539 33.8818C209.928 33.7588 210.239 33.3862 210.472 32.7642L210.697 32.1489L206.555 20.439H209.416L212.051 29.1035H212.174L214.819 20.439H217.701L213.107 33.2871C212.895 33.8955 212.615 34.415 212.266 34.8457C211.917 35.2832 211.487 35.6147 210.974 35.8403C210.461 36.0728 209.853 36.189 209.149 36.189Z" fill="black"/>
<path d="M9.83995 7.03068H3.77308V10.9288H1.0332V0.0971069H9.83995C11.2498 0.0971069 12.2403 1.08762 12.2403 2.4975V4.63428C12.2403 6.04017 11.2498 7.03068 9.83995 7.03068ZM3.77308 2.12206V5.00173H8.75758C9.17695 5.00173 9.45253 4.72215 9.45253 4.30677V2.82101C9.45253 2.40164 9.17296 2.12605 8.75758 2.12605H3.77308V2.12206Z" fill="black"/>
<path d="M22.7407 6.99885L24.9853 10.9289H22.0297L19.8011 7.0308H16.2864V10.9289H13.5465V0.097229H22.3533C23.7631 0.097229 24.7536 1.08774 24.7536 2.49762V4.6344C24.7536 5.90449 23.9349 6.84707 22.7407 7.00284V6.99885ZM16.2864 2.12218V5.00185H21.2709C21.6903 5.00185 21.9658 4.72227 21.9658 4.3069V2.82113C21.9658 2.40176 21.6863 2.12618 21.2709 2.12618H16.2864V2.12218Z" fill="black"/>
<path d="M28.2242 0.097229H35.0939C36.3639 0.097229 37.2626 0.995877 37.2626 2.26597V8.76419C37.2626 10.0343 36.3639 10.9289 35.0939 10.9289H28.2242C26.9541 10.9289 26.0594 10.0303 26.0594 8.76419V2.26597C26.0594 0.995877 26.9581 0.097229 28.2242 0.097229ZM27.7289 5.51308L29.7259 8.94791H33.5961L35.5931 5.51308L33.5961 2.07825H29.7259L27.7289 5.51308Z" fill="black"/>
<path d="M40.734 10.9289C39.4639 10.9289 38.5692 10.0303 38.5692 8.76419V2.26597C38.5692 0.995877 39.4679 0.097229 40.734 0.097229H47.6036C48.8737 0.097229 49.7724 0.995877 49.7724 2.26597V4.41873H47.5277L46.1818 2.08224H42.2357L40.2387 5.51707L42.2357 8.95191H46.1818L47.5277 6.61542H49.7724V8.76818C49.7724 10.0383 48.8737 10.9329 47.6036 10.9329H40.734V10.9289Z" fill="black"/>
<path d="M53.2467 0.097229H60.1163C61.3864 0.097229 62.2851 0.995877 62.2851 2.26597V8.76419C62.2851 10.0343 61.3864 10.9289 60.1163 10.9289H53.2467C51.9766 10.9289 51.0819 10.0303 51.0819 8.76419V2.26597C51.0819 0.995877 51.9806 0.097229 53.2467 0.097229ZM52.7514 5.51308L54.7484 8.94791H58.6186L60.6156 5.51308L58.6186 2.07825H54.7484L52.7514 5.51308Z" fill="black"/>
<path d="M72.7855 6.99885L75.0301 10.9289H72.0745L69.8459 7.0308H66.3312V10.9289H63.5913V0.097229H72.3981C73.8079 0.097229 74.7984 1.08774 74.7984 2.49762V4.6344C74.7984 5.90449 73.9797 6.84707 72.7855 7.00284V6.99885ZM66.3312 2.12218V5.00185H71.3157C71.7351 5.00185 72.0106 4.72227 72.0106 4.3069V2.82113C72.0106 2.40176 71.7311 2.12618 71.3157 2.12618H66.3312V2.12218Z" fill="black"/>
<path d="M78.8401 6.51957V8.90398H87.3074V10.9329H76.1042V0.097229H87.3074V2.12618H78.8401V4.49461H84.7512V6.52356H78.8401V6.51957Z" fill="black"/>
<path d="M45.2548 3.6875L46.3212 5.51275L45.2548 7.33801H43.15L42.0796 5.51275L43.15 3.6875H45.2548Z" fill="#FF5200"/>
</svg>
